<svg xmlns="http://www.w3.org/2000/svg" viewBox="323.3 293.0 609.5 657.6" fill="none"><path d="M620.0 719.27 C615.3 718.4 615.0 717.51 615.0 704.44 C615.0 697.66 615.41 691.86 615.91 691.55 C616.42 691.24 623.95 690.81 632.66 690.6 C655.16 690.04 672.91 686.09 692.5 677.27 C739.35 656.17 773.17 613.8 784.1 562.5 C788.4 542.32 787.71 511.73 782.5 492.01 C780.76 485.41 781.13 484.88 789.13 482.61 C792.22 481.74 797.09 479.41 799.95 477.44 C803.96 474.68 805.45 474.13 806.5 475.0 C807.89 476.15 812.08 492.4 813.99 504.0 C814.57 507.57 815.32 516.58 815.65 524.0 C817.05 555.24 810.11 586.31 794.98 616.5 C765.6 675.16 707.31 714.25 642.11 719.02 C628.94 719.98 624.18 720.04 620.0 719.27 Z M566.33 707.95 C554.94 704.1 532.31 692.24 521.07 684.22 C510.24 676.5 492.88 660.24 484.43 649.91 C475.93 639.53 466.67 625.0 460.56 612.5 C423.79 537.23 441.53 446.48 504.0 390.26 C565.1 335.27 653.11 325.61 722.25 366.33 C740.31 376.96 765.12 397.71 763.22 400.58 C762.82 401.18 759.65 403.17 756.17 405.01 C752.69 406.85 748.38 410.08 746.58 412.18 C744.78 414.28 742.78 416.0 742.13 416.0 C741.49 416.0 737.28 412.82 732.78 408.93 C711.69 390.7 687.83 378.91 659.66 372.8 C644.93 369.6 615.07 369.6 600.34 372.8 C577.89 377.67 559.7 385.3 541.5 397.46 C504.96 421.88 481.15 458.75 472.35 504.5 C469.74 518.09 469.97 544.08 472.84 558.7 C478.58 587.94 491.98 615.13 511.61 637.35 C522.55 649.73 544.38 667.12 546.98 665.51 C547.66 665.09 548.0 643.31 548.0 601.12 C548.0 530.77 548.35 525.66 554.15 511.05 C562.34 490.39 578.53 473.71 598.63 465.21 C638.63 448.29 682.87 464.66 702.12 503.5 C713.84 527.15 713.83 552.95 702.09 576.5 C693.6 593.55 682.54 604.73 666.5 612.47 C653.92 618.55 646.09 620.3 630.91 620.41 C621.61 620.48 617.89 620.14 616.66 619.13 C615.28 617.98 615.0 615.71 615.0 605.44 C615.0 596.97 615.37 592.89 616.19 592.38 C616.85 591.98 622.01 591.76 627.67 591.9 C639.29 592.19 645.93 590.72 655.2 585.8 C663.21 581.55 672.24 571.8 676.5 562.82 C684.03 546.92 683.87 532.99 675.97 516.42 C672.95 510.1 670.61 506.93 665.18 501.81 C657.1 494.18 650.37 490.6 639.98 488.4 C614.8 483.06 587.63 499.65 579.91 525.08 C577.56 532.81 577.32 543.24 577.12 647.64 C577.03 696.35 576.73 709.89 575.75 710.25 C575.06 710.5 570.82 709.47 566.33 707.95 Z" fill="#1A1714"/><circle cx="776" cy="442" r="22" fill="#C49A5C"/><g transform="translate(345.83 886.13) scale(0.1445)"><path d="M150 220V-460H70V220ZM535 -230Q535 -305 504.0 -358.5Q473 -412 421.5 -441.0Q370 -470 307 -470Q250 -470 206.5 -441.0Q163 -412 138.5 -358.5Q114 -305 114 -230Q114 -156 138.5 -102.0Q163 -48 206.5 -19.0Q250 10 307 10Q370 10 421.5 -19.0Q473 -48 504.0 -102.0Q535 -156 535 -230ZM454 -230Q454 -177 432.5 -140.0Q411 -103 375.5 -84.0Q340 -65 297 -65Q262 -65 228.0 -84.0Q194 -103 172.0 -140.0Q150 -177 150 -230Q150 -283 172.0 -320.0Q194 -357 228.0 -376.0Q262 -395 297 -395Q340 -395 375.5 -376.0Q411 -357 432.5 -320.0Q454 -283 454 -230ZM685.0 -780V0H765.0V-780ZM991.0 -142Q991.0 -167 1003.0 -185.0Q1015.0 -203 1039.5 -213.0Q1064.0 -223 1103.0 -223Q1145.0 -223 1182.0 -212.5Q1219.0 -202 1254.0 -178V-225Q1247.0 -234 1227.0 -248.5Q1207.0 -263 1173.5 -274.5Q1140.0 -286 1090.0 -286Q1005.0 -286 957.5 -245.5Q910.0 -205 910.0 -138Q910.0 -91 932.0 -58.0Q954.0 -25 990.5 -7.5Q1027.0 10 1069.0 10Q1107.0 10 1145.5 -4.0Q1184.0 -18 1210.5 -47.0Q1237.0 -76 1237.0 -120L1221.0 -180Q1221.0 -144 1203.5 -116.5Q1186.0 -89 1156.5 -74.0Q1127.0 -59 1090.0 -59Q1061.0 -59 1038.5 -68.5Q1016.0 -78 1003.5 -97.0Q991.0 -116 991.0 -142ZM979.0 -354Q990.0 -362 1009.0 -373.0Q1028.0 -384 1055.5 -392.0Q1083.0 -400 1117.0 -400Q1138.0 -400 1157.0 -396.0Q1176.0 -392 1190.5 -383.0Q1205.0 -374 1213.0 -358.5Q1221.0 -343 1221.0 -319V0H1301.0V-330Q1301.0 -375 1278.5 -406.0Q1256.0 -437 1215.5 -453.5Q1175.0 -470 1121.0 -470Q1057.0 -470 1011.5 -451.0Q966.0 -432 940.0 -413ZM1771.0 -280V0H1851.0V-290Q1851.0 -373 1808.5 -421.5Q1766.0 -470 1693.0 -470Q1648.0 -470 1613.5 -450.0Q1579.0 -430 1556.0 -388V-460H1476.0V0H1556.0V-280Q1556.0 -314 1570.5 -340.0Q1585.0 -366 1611.5 -380.5Q1638.0 -395 1673.0 -395Q1721.0 -395 1746.0 -366.0Q1771.0 -337 1771.0 -280ZM2006.0 -460V-385H2236.0V-460ZM2228.0 -684 2272.0 -750Q2265.0 -760 2252.5 -769.0Q2240.0 -778 2223.0 -784.0Q2206.0 -790 2184.0 -790Q2142.0 -790 2112.5 -772.5Q2083.0 -755 2067.0 -720.0Q2051.0 -685 2051.0 -630V0H2131.0V-620Q2131.0 -653 2137.0 -673.0Q2143.0 -693 2153.5 -701.5Q2164.0 -710 2179.0 -710Q2191.0 -710 2204.5 -705.5Q2218.0 -701 2228.0 -684ZM2447.0 -180V-460H2367.0V-170Q2367.0 -88 2410.0 -39.0Q2453.0 10 2525.0 10Q2571.0 10 2605.0 -10.5Q2639.0 -31 2662.0 -72V0H2742.0V-460H2662.0V-180Q2662.0 -146 2647.5 -120.0Q2633.0 -94 2606.5 -79.5Q2580.0 -65 2545.0 -65Q2497.0 -65 2472.0 -95.0Q2447.0 -125 2447.0 -180ZM2932.0 -780V0H3012.0V-780ZM3202.0 -780V0H3282.0V-780ZM3837.0 -460H3747.0L3605.0 -104L3638.0 -100L3492.0 -460H3397.0L3573.0 -65L3447.0 220H3537.0Z" fill="#1A1714"/></g></svg>
