<svg xmlns="http://www.w3.org/2000/svg" viewBox="391.7 294.1 457.5 457.5" fill="none"><path d="M620.0 719.27 C615.3 718.4 615.0 717.51 615.0 704.44 C615.0 697.66 615.41 691.86 615.91 691.55 C616.42 691.24 623.95 690.81 632.66 690.6 C655.16 690.04 672.91 686.09 692.5 677.27 C739.35 656.17 773.17 613.8 784.1 562.5 C788.4 542.32 787.71 511.73 782.5 492.01 C780.76 485.41 781.13 484.88 789.13 482.61 C792.22 481.74 797.09 479.41 799.95 477.44 C803.96 474.68 805.45 474.13 806.5 475.0 C807.89 476.15 812.08 492.4 813.99 504.0 C814.57 507.57 815.32 516.58 815.65 524.0 C817.05 555.24 810.11 586.31 794.98 616.5 C765.6 675.16 707.31 714.25 642.11 719.02 C628.94 719.98 624.18 720.04 620.0 719.27 Z M566.33 707.95 C554.94 704.1 532.31 692.24 521.07 684.22 C510.24 676.5 492.88 660.24 484.43 649.91 C475.93 639.53 466.67 625.0 460.56 612.5 C423.79 537.23 441.53 446.48 504.0 390.26 C565.1 335.27 653.11 325.61 722.25 366.33 C740.31 376.96 765.12 397.71 763.22 400.58 C762.82 401.18 759.65 403.17 756.17 405.01 C752.69 406.85 748.38 410.08 746.58 412.18 C744.78 414.28 742.78 416.0 742.13 416.0 C741.49 416.0 737.28 412.82 732.78 408.93 C711.69 390.7 687.83 378.91 659.66 372.8 C644.93 369.6 615.07 369.6 600.34 372.8 C577.89 377.67 559.7 385.3 541.5 397.46 C504.96 421.88 481.15 458.75 472.35 504.5 C469.74 518.09 469.97 544.08 472.84 558.7 C478.58 587.94 491.98 615.13 511.61 637.35 C522.55 649.73 544.38 667.12 546.98 665.51 C547.66 665.09 548.0 643.31 548.0 601.12 C548.0 530.77 548.35 525.66 554.15 511.05 C562.34 490.39 578.53 473.71 598.63 465.21 C638.63 448.29 682.87 464.66 702.12 503.5 C713.84 527.15 713.83 552.95 702.09 576.5 C693.6 593.55 682.54 604.73 666.5 612.47 C653.92 618.55 646.09 620.3 630.91 620.41 C621.61 620.48 617.89 620.14 616.66 619.13 C615.28 617.98 615.0 615.71 615.0 605.44 C615.0 596.97 615.37 592.89 616.19 592.38 C616.85 591.98 622.01 591.76 627.67 591.9 C639.29 592.19 645.93 590.72 655.2 585.8 C663.21 581.55 672.24 571.8 676.5 562.82 C684.03 546.92 683.87 532.99 675.97 516.42 C672.95 510.1 670.61 506.93 665.18 501.81 C657.1 494.18 650.37 490.6 639.98 488.4 C614.8 483.06 587.63 499.65 579.91 525.08 C577.56 532.81 577.32 543.24 577.12 647.64 C577.03 696.35 576.73 709.89 575.75 710.25 C575.06 710.5 570.82 709.47 566.33 707.95 Z" fill="#181F1B"></path><circle cx="776" cy="442" r="22" fill="#C03B2A"></circle></svg>
